#!OML:ASF X:\für Bonn\!DataBase\2005_08_10_Bjorn_Final\c3d\bjorn.ASF
:FULLY-SPECIFIED
:DEGREES
32
root 1.99465 18.3801 1.7875 498.643 82.5805 -579.325
lowerback 12.9007 1.38783 0.692052
upperback 13.7731 3.07711 -1.31668
thorax 7.60503 2.14914 -1.90742
lowerneck -1.07313 -5.6764 4.15757
upperneck 6.59959 -7.58206 -0.905526
head 2.05672 -3.66369 -1.13014
rclavicle 2.62396e-014 -2.74323e-014
rhumerus -0.155552 -1.11899 -85.5312
rradius 36.2948
rwrist -2.73717
rhand -24.0387 16.8614
rfingers 7.12502
rthumb 2.43996 -13.1044
lclavicle 2.62396e-014 -2.74323e-014
lhumerus -17.4609 -21.0178 85.7858
lradius 30.7557
lwrist -18.6664
lhand -23.2168 -11.3474
lfingers 7.12502
lthumb 3.23376 18.6078
rfemur -23.5835 -10.8992 13.5793
rtibia 50.2847
rfoot -17.0247 15.5009
rtoes 5.97425
lfemur -29.7666 6.16409 -22.8108
ltibia 43.5559
lfoot -9.22652 -3.72709
ltoes -9.95908
33
root 2.01792 18.3051 1.79298 498.867 82.4578 -579.078
lowerback 13.5517 1.33613 0.609402
upperback 14.0094 3.06399 -1.44377
thorax 7.52673 2.16833 -2.01651
lowerneck -1.21739 -5.78123 4.32253
upperneck 6.3631 -7.73875 -0.905355
head 1.99501 -3.74477 -1.15854
rclavicle -1.98785e-015 1.47101e-014
rhumerus 0.71056 -0.928162 -85.4028
rradius 36.2191
rwrist -2.55551
rhand -24.2175 17.16
rfingers 7.12502
rthumb 2.26731 -12.8077
lclavicle -1.98785e-015 1.47101e-014
lhumerus -16.3727 -21.3887 85.2969
lradius 31.0932
lwrist -18.2652
lhand -23.8184 -11.5505
lfingers 7.12502
lthumb 2.65278 18.4127
rfemur -24.1209 -10.9339 13.5093
rtibia 51.5261
rfoot -17.6272 15.6585
rtoes 6.21169
lfemur -30.4174 5.89725 -22.8101
ltibia 44.7645
lfoot -8.77733 -3.89612
ltoes -7.87883
34
root 2.03937 18.2246 1.79886 499.188 82.3516 -578.733
lowerback 14.2049 1.29173 0.567317
upperback 14.2501 3.06482 -1.56549
thorax 7.45794 2.19894 -2.14352
lowerneck -1.25852 -5.85484 4.33259
upperneck 6.0675 -7.85827 -0.608848
head 1.91417 -3.80452 -1.0625
rclavicle -5.1684e-015 -1.35174e-014
rhumerus 1.55081 -0.770308 -85.2555
rradius 36.1371
rwrist -2.40701
rhand -24.4518 17.5526
rfingers 7.12502
rthumb 2.04104 -12.4173
lclavicle -5.1684e-015 -1.35174e-014
lhumerus -15.2043 -21.8183 84.7975
lradius 31.4047
lwrist -17.7199
lhand -24.286 -11.6621
lfingers 7.12502
lthumb 2.20118 18.3062
rfemur -24.7041 -10.9514 13.474
rtibia 52.8276
rfoot -18.2593 15.7562
rtoes 6.40108
lfemur -31.1001 5.67619 -22.7901
ltibia 46.0814
lfoot -8.44941 -4.06532
ltoes -5.27855
35
root 2.05924 18.1396 1.80324 499.493 82.246 -578.421
lowerback 14.8452 1.23694 0.521291
upperback 14.4905 3.051 -1.67368
thorax 7.39693 2.22138 -2.25252
lowerneck -1.28526 -5.89901 4.21278
upperneck 5.75793 -7.93944 -0.16504
head 1.83874 -3.84502 -0.898635
rclavicle 2.18663e-014 -1.86858e-014
rhumerus 2.39408 -0.576096 -85.068
rradius 36.0226
rwrist -2.3118
rhand -24.6452 17.8596
rfingers 7.12502
rthumb 1.85422 -12.1121
lclavicle 2.18663e-014 -1.86858e-014
lhumerus -14.0087 -22.1664 84.3072
lradius 31.7426
lwrist -17.152
lhand -24.5155 -11.694
lfingers 7.12502
lthumb 1.97946 18.2766
rfemur -25.337 -10.9736 13.4333
rtibia 54.1783
rfoot -18.9351 15.8603
rtoes 6.32376
lfemur -31.8206 5.4725 -22.787
ltibia 47.473
lfoot -8.333 -4.20093
ltoes -3.32719
36
root 2.07794 18.0495 1.80746 499.727 82.1481 -578.171
lowerback 15.5282 1.19204 0.471001
upperback 14.7025 3.04501 -1.7571
thorax 7.28179 2.2446 -2.33648
lowerneck -1.22865 -5.95284 3.97699
upperneck 5.45481 -8.02574 0.344405
head 1.75888 -3.8889 -0.693963
rclavicle -1.94809e-014 -2.38542e-014
rhumerus 3.17937 -0.381169 -84.8288
rradius 35.9042
rwrist -2.30913
rhand -24.6424 17.8135
rfingers 7.12502
rthumb 1.85694 -12.1581
lclavicle -1.94809e-014 -2.38542e-014
lhumerus -12.8501 -22.5878 83.8557
lradius 32.0749
lwrist -16.6044
lhand -24.7146 -11.7071
lfingers 7.12502
lthumb 1.78725 18.2652
rfemur -25.979 -10.9781 13.3898
rtibia 55.5632
rfoot -19.5928 15.9643
rtoes 6.4189
lfemur -32.5489 5.33321 -22.797
ltibia 48.9232
lfoot -8.41359 -4.35752
ltoes -2.09198
37
root 2.09671 17.9588 1.81052 499.939 82.0512 -577.955
lowerback 16.1828 1.15734 0.432298
upperback 14.9255 3.05456 -1.82151
thorax 7.19786 2.27653 -2.40642
lowerneck -1.23329 -6.01447 3.80808
upperneck 5.16867 -8.12119 0.746373
head 1.68937 -3.93849 -0.537515
rclavicle -3.4191e-014 2.0276e-014
rhumerus 3.95373 -0.216996 -84.5352
rradius 35.8124
rwrist -2.3551
rhand -24.5857 17.6856
rfingers 7.12502
rthumb 1.91167 -12.2856
lclavicle -3.4191e-014 2.0276e-014
lhumerus -11.6215 -22.9461 83.4119
lradius 32.3575
lwrist -16.3221
lhand -24.8915 -11.6775
lfingers 7.12502
lthumb 1.6164 18.2961
rfemur -26.6531 -10.9947 13.3335
rtibia 56.9758
rfoot -20.2815 16.1136
rtoes 6.43204
lfemur -33.2986 5.21616 -22.8289
ltibia 50.3997
lfoot -8.78008 -4.5042
ltoes -1.93753
38
root 2.11376 17.8628 1.81207 500.162 81.9564 -577.745
lowerback 16.8443 1.1192 0.422273
upperback 15.1319 3.06133 -1.89804
thorax 7.09647 2.30992 -2.50639
lowerneck -1.30258 -6.07358 3.67254
upperneck 4.95984 -8.2158 1.12441
head 1.65473 -3.98555 -0.399021
rclavicle -4.29375e-014 3.1408e-014
rhumerus 4.69833 -0.151044 -84.276
rradius 35.7383
rwrist -2.29082
rhand -24.5053 17.511
rfingers 7.12502
rthumb 1.98933 -12.4595
lclavicle -4.29375e-014 3.1408e-014
lhumerus -10.3911 -23.3251 82.936
lradius 32.638
lwrist -16.1691
lhand -25.1055 -11.6157
lfingers 7.12502
lthumb 1.4097 18.3594
rfemur -27.3695 -11.0186 13.2839
rtibia 58.4149
rfoot -20.9559 16.2154
rtoes 6.23663
lfemur -34.0907 5.12793 -22.8691
ltibia 51.896
lfoot -9.3827 -4.64652
ltoes -2.78124
39
root 2.13044 17.7641 1.81381 500.272 81.8748 -577.638
lowerback 17.5265 1.08243 0.381566
upperback 15.3399 3.06633 -1.94968
thorax 6.98609 2.33859 -2.56359
lowerneck -1.38357 -6.14296 3.52723
upperneck 4.73938 -8.31987 1.41809
head 1.61578 -4.0399 -0.285598
rclavicle -2.78299e-014 2.18663e-014
rhumerus 5.43755 -0.0345788 -83.9697
rradius 35.6717
rwrist -2.25994
rhand -24.4886 17.3325
rfingers 7.12502
rthumb 2.00545 -12.6379
lclavicle -2.78299e-014 2.18663e-014
lhumerus -9.09946 -23.6537 82.4687
lradius 32.8722
lwrist -16.0198
lhand -25.287 -11.6119
lfingers 7.12502
lthumb 1.23441 18.3643
rfemur -28.0932 -11.0132 13.2227
rtibia 59.8741
rfoot -21.6083 16.3569
rtoes 6.2744
lfemur -34.8899 5.09101 -22.9257
ltibia 53.3905
lfoot -10.0677 -4.74932
ltoes -3.99396
40
root 2.14572 17.6623 1.81279 500.418 81.821 -577.533
lowerback 18.2036 1.04639 0.374525
upperback 15.509 3.06833 -1.98935
thorax 6.83689 2.36484 -2.62802
lowerneck -1.43235 -6.21856 3.3964
upperneck 4.54529 -8.4285 1.67517
head 1.57814 -4.09639 -0.185497
rclavicle -2.62396e-014 -1.59028e-015
rhumerus 6.13788 0.0931045 -83.6253
rradius 35.5646
rwrist -2.18977
rhand -24.5351 17.1986
rfingers 7.12502
rthumb 1.96053 -12.7721
lclavicle -2.62396e-014 -1.59028e-015
lhumerus -7.86983 -23.9939 82.0226
lradius 33.1415
lwrist -15.866
lhand -25.6013 -11.7084
lfingers 7.12502
lthumb 0.930857 18.2694
rfemur -28.8888 -11.0171 13.1796
rtibia 61.3613
rfoot -22.2638 16.5097
rtoes 6.05938
lfemur -35.7736 5.09247 -22.9897
ltibia 54.8929
lfoot -10.7469 -4.76218
ltoes -5.19405
41
root 2.16123 17.5585 1.81115 500.569 81.7673 -577.434
lowerback 18.8815 1.01127 0.375873
upperback 15.6845 3.07421 -2.01828
thorax 6.69802 2.39398 -2.68609
lowerneck -1.55512 -6.30786 3.31399
upperneck 4.36406 -8.5569 1.84151
head 1.55166 -4.16339 -0.124309
rclavicle -1.59028e-015 9.93923e-015
rhumerus 6.84458 0.164104 -83.2727
rradius 35.4589
rwrist -2.06703
rhand -24.6277 17.1201
rfingers 7.12502
rthumb 1.87113 -12.8515
lclavicle -1.59028e-015 9.93923e-015
lhumerus -6.59112 -24.3854 81.5437
lradius 33.4367
lwrist -15.6593
lhand -25.9054 -11.825
lfingers 7.12502
lthumb 0.637152 18.1538
rfemur -29.7051 -10.9911 13.1298
rtibia 62.8666
rfoot -22.8965 16.6391
rtoes 5.90689
lfemur -36.6816 5.08952 -23.0629
ltibia 56.3945
lfoot -11.3729 -4.69865
ltoes -6.13235
